<?xml version="1.0" encoding="UTF-8"?>
<svg width="509.24" height="512" version="1.1" viewBox="0 0 509.24 512" xmlns="http://www.w3.org/2000/svg">
 <g transform="translate(-822.8 -377.2)">
  <path d="m1099.3 377.89c-12.722-1.1254-41.683-0.81645-51.828 0.5533-21.18 2.8597-39.016 7.0341-56.021 13.112-61.305 21.911-110.52 65.101-140.62 123.4-14.136 27.378-22.524 55.487-26.749 89.631-1.2406 10.026-1.7345 38.385-0.85871 49.358 3.5432 44.395 19.023 87.639 44.39 124.01 43.762 62.747 111.81 102.81 187.09 110.16 3.4277 0.33462 6.9971 0.69711 7.932 0.80447 0.9348 0.10737 7.8806 0.23354 15.435 0.28 48.172 0.29779 93.272-12.759 135.27-39.161 19.522-12.272 39.508-29.413 55.797-47.855 31.284-35.419 51.192-77.577 59.535-126.08 4.8523-28.208 4.3995-61.439-1.2283-90.221-10.669-54.564-38.375-105.18-76.994-140.66-27.472-25.241-57.081-43.019-91.24-54.782-19.754-6.8031-37.88-10.599-59.916-12.549zm-21.972 18.721c10.238-1e-3 20.537 0.35413 26.386 1.0678 49.598 6.0521 96.277 27.884 132.58 62.004 17.89 16.816 28.826 30.346 41.504 51.353 21.877 36.247 33.348 75.423 34.771 118.76 1.4608 44.48-13.13 93.663-39.386 132.76-32.346 48.169-86.368 86.605-140.29 99.812-10.023 2.4552-25.819 5.1727-34.277 5.898-7.7636 0.66583-22.827 1.13-27.195 0.83773-28.543-1.9095-47.208-5.5896-70.255-13.85-36.032-12.915-64.798-31.518-92.07-59.54-20.082-20.635-34.359-41.204-45.952-66.204-12.419-26.782-18.936-53.584-20.678-85.048-2.1341-38.555 6.4662-80.011 23.852-114.98 12.948-26.044 27.728-46.407 48.534-66.867 35.959-35.361 84.052-58.243 136.45-64.926 5.6061-0.71496 15.783-1.0734 26.021-1.0745zm-0.2423 63.521c-13.77-0.0135-18.662 0.18926-24.079 0.99814-18.197 2.7168-34.996 8.0074-38.148 12.015-3.3006 4.1961-1.4807 10.881 3.5599 13.076 2.56 1.1151 4.1613 0.97046 9.427-0.85207 14.161-4.9012 30.731-7.433 48.729-7.4451 12.522-8e-3 20.329 0.74892 30.701 2.9789 4.4298 0.95241 9.6588 1.8477 11.62 1.9896 3.5661 0.25814 3.5661 0.2582 6.0906-2.2663 2.4168-2.4168 2.5219-2.6658 2.5219-5.856-0.01-6.0674-2.5612-8.4131-11.716-10.744-12.153-3.0938-19.937-3.8768-38.706-3.8952zm66.289 44.234c-6.0692 0.0465-7.71 0.26733-11.47 1.5448-8.8549 3.0087-14.805 7.5916-20.006 15.408-7.9728 11.982-12.356 30.574-12.35 52.384 0.01 12.061 0.6584 16.851 3.3374 24.364 3.5328 9.9067 10.427 18.77 18.136 23.319 2.1252 1.2539 2.1255 1.2544 1.7418 12.622-0.5011 14.845-3.0396 70.367-4.651 101.73-1.6807 32.72-1.6985 35.526-0.2644 40.277 3.3861 11.218 11.196 17.888 23.085 19.716 1.4987 0.23044 4.3817 0.32189 6.4071 0.20361 11.814-0.68989 19.704-5.4378 24.027-14.457 2.9633-6.1825 3.3958-9.8333 2.647-22.362-0.3494-5.846-1.1339-19.171-1.7429-29.61-0.609-10.439-1.3666-22.932-1.6842-27.762-0.9126-13.881-2.7528-46.672-3.4017-60.623-0.3261-7.0113-0.7281-14.025-0.8941-15.586-0.2846-2.6763-0.2069-2.8939 1.3589-3.8188 3.1088-1.8364 10.243-8.9921 12.8-12.837 3.5189-5.2933 5.8042-10.617 7.5634-17.616 1.3533-5.3842 1.4932-6.944 1.4751-16.43-0.016-8.6685-0.279-12.001-1.516-19.263-3.5368-20.764-8.7668-32.882-17.918-41.514-7.2846-6.872-15.29-9.7798-26.681-9.6925zm-170.52 0.21247c-2.7603 0.029-5.5898 1.4606-6.9062 3.9604-0.98033 1.8617-1.0391 4.2887-1.0391 42.598 0 27.046 0.19969 41.147 0.59645 42.191 0.32777 0.8621 5.6884 6.6999 11.913 12.972 11.318 11.405 11.318 11.405 10.458 34.588-0.94077 25.362-1.7035 43.01-2.5573 59.16-0.30476 5.7648-0.82374 16.218-1.153 23.229-0.32931 7.0113-0.84535 17.337-1.1475 22.946-1.4529 26.97-0.33527 33.231 7.3311 41.066 3.5517 3.6297 9.4701 6.9221 14.251 7.9264 4.1641 0.87485 12.276 0.3177 15.996-1.0988 7.7347-2.9458 13.153-8.3334 16.349-16.256 1.2876-3.1929 1.332-3.8061 1.2472-17.474-0.048-7.7903-0.6182-23.725-1.266-35.411-0.6478-11.685-1.43-26.728-1.7384-33.428-0.3083-6.6997-0.6971-14.221-0.8631-16.714s-0.6756-13.838-1.1332-25.212c-0.4575-11.374-0.9698-23.484-1.1386-26.912-0.3069-6.2323-0.3076-6.2319 10.527-17.544 5.959-6.2215 11.063-11.911 11.341-12.643 0.2797-0.73574 0.5057-19.19 0.5057-41.256 0-43.14 0.072-42.072-3.0387-44.94-1.0683-0.98519-2.3343-1.4405-4.5126-1.6211-3.6591-0.30344-6.1611 0.8051-7.7693 3.4426-1.0684 1.7518-1.1077 3.1274-1.1077 40.202 0 38.388 0 38.389-11.033 49.477-9.0133 9.0608-11.1 11.456-11.407 13.092-0.6884 3.6696 1.4321 61.072 4.9077 132.84 1.247 25.751 1.2018 26.804-1.3213 30.548-3.9821 5.9091-12.208 6.5676-16.793 1.3445-2.8056-3.1953-3.1099-5.3954-2.3869-17.252 2.2532-36.95 5.1609-112.86 5.1666-134.9 0-12.805 0-12.806-1.5548-14.848-0.8569-1.123-6.3384-6.548-12.181-12.056-10.623-10.015-10.623-10.014-10.623-47.635 0-41.173 0.0967-39.939-3.3662-42.852-1.2655-1.0648-2.8963-1.5522-4.5525-1.5348zm49.548 0.041c-0.4833-5e-3 -1.0399 0.0278-1.7185 0.0841-2.6096 0.21641-3.4766 0.57645-4.9642 2.0638-1.8024 1.8022-1.8026 1.8022-1.9686 37.627-0.091 19.704-0.018 36.646 0.1638 37.649 0.3712 2.0514 2.7046 5.1044 4.4883 5.8726 0.6486 0.27935 2.415 0.41774 3.925 0.30763 2.266-0.16525 3.1071-0.561 4.8159-2.2696 2.0704-2.0702 2.0701-2.0708 2.2408-38.18 0.1182-24.989-0.021-36.767-0.4504-38.243-0.4338-1.4902-1.2944-2.578-2.855-3.6108-1.4385-0.95196-2.2273-1.2873-3.6771-1.3002zm-24.769 0.031c-2.888 0.0126-4.9812 1.1161-6.2776 3.3109-0.86481 1.464-0.95166 4.9563-0.95166 38.238 0 40.419-0.13452 38.867 3.5687 41.125 3.5424 2.1599 8.1727 1.111 10.693-2.4223 1.3195-1.8499 1.319-1.8502 1.495-35.844 0.097-18.697 0.011-35.36-0.1903-37.03-0.5347-4.4336-2.9314-6.9198-7.0512-7.3156-0.445-0.0428-0.87328-0.0638-1.2858-0.062zm202.93 11.593c-4.5565-0.20435-8.4565 3.0805-8.4565 7.5922 0 2.8349 1.4856 5.5929 5.327 9.8851 16.29 18.201 28.626 43.073 34.317 69.192 4.7427 21.765 4.4463 45.888-0.8356 67.957-5.5467 23.177-18.648 46.853-36.164 65.352-5.3759 5.6777-6.6107 7.8053-6.6107 11.398 0 1.8387 0.4101 2.7373 2.107 4.6156 1.1587 1.2826 2.6247 2.5419 3.2577 2.7985 1.9827 0.80378 5.0206 0.55732 7.61-0.61747 1.5597-0.70766 4.7412-3.4112 8.4985-7.2215 22.803-23.124 37.508-54.725 41.729-89.675 4.1915-34.704-1.889-69.279-17.63-100.25-9.6372-18.96-25.044-39.089-31.167-40.722-0.6683-0.17822-1.3321-0.27844-1.983-0.30763zm-55.841 3.7878c1.5925 0.0146 3.1875 0.21789 4.7472 0.61747 7.401 1.896 12.136 6.762 15.969 16.412 6.1846 15.569 8.8861 39.088 5.8029 50.524-2.6636 9.8805-6.9423 15.748-15.754 21.603-3.0718 2.0409-4.846 3.6326-5.3182 4.7727-0.5322 1.2848-0.6116 4.4214-0.3198 12.597 0.7513 21.049 3.488 81.614 4.0125 88.789 0.1708 2.3371 0.6857 11.77 1.1442 20.963 1.0218 20.491 1.3475 26.07 1.7395 29.839 0.5805 5.5819-1.7465 10.485-6.0076 12.659-3.1431 1.6035-7.0052 1.4736-10.682-0.35853-5.1673-2.5749-7.2429-7.3363-6.6318-15.213 0.194-2.5003 0.7227-12.451 1.1752-22.111s1.08-22.408 1.3943-28.328c1.6702-31.458 3.502-75.777 3.5975-87.042 0.1263-14.895 0.6321-13.515-6.5675-17.916-10.921-6.675-15.838-15.84-16.642-31.019-0.5884-11.109 1.9786-27.064 6.0563-37.638 2.0424-5.296 6.3319-12.111 9.0895-14.443 3.6682-3.1016 8.4176-4.7511 13.195-4.7074zm-199.67 3.956c-0.74827 0.0219-1.5132 0.14266-2.2818 0.37292-2.7272 0.81709-4.8896 3.0117-9.9537 10.103-9.8327 13.769-17.195 28.372-22.78 45.189-5.9204 17.826-7.9697 29.968-8.4166 49.865-0.42705 19.012 0.64636 28.985 4.9376 45.885 7.0601 27.806 22.263 54.601 41.856 73.772 1.987 1.9442 4.9048 4.1791 6.4846 4.9663 3.2281 1.6086 4.1449 1.7079 7.2304 0.78346 3.2666-0.97871 5.1591-3.2774 5.4842-6.6605 0.1495-1.5557 0.12403-3.4174-0.0564-4.1364-0.18047-0.71904-2.8376-3.8552-5.9058-6.9704-15.359-15.594-26.681-33.031-33.814-52.073-7.0211-18.746-10.344-41.09-8.9113-59.929 2.3934-31.476 11.947-58.18 29.786-83.26 2.4624-3.462 4.646-7.0916 4.8524-8.0648 1.1322-5.3388-3.2739-9.9962-8.5118-9.843zm111.17 263.96c-1.5363 0.0552-2.2235 0.31436-3.2578 0.82109-3.3621 1.6471-4.918 4.3607-4.6211 8.0581 0.4808 5.989 4.7787 8.1946 17.854 9.1603 3.6579 0.27016 11.05 0.37454 16.426 0.23239 19.27-0.50952 23.955-1.9235 25.526-7.7051 1.0968-4.0382-0.6542-8.1102-4.2149-9.7999-1.9793-0.93922-2.8627-0.96618-11.516-0.35964-11.742 0.82286-16.072 0.82196-27.846-3e-3 -4.4278-0.31036-6.8129-0.45913-8.3491-0.4039z"/>
 </g>
</svg>
